<mxfile host="app.diagrams.net" modified="2022-10-20T02:43:40.961Z" agent="5.0 (Macintosh; Intel Mac OS X 10_15_6) AppleWebKit/537.36 (KHTML, like Gecko) Chrome/78.0.3904.108 Safari/537.36" etag="RYQC61GYdWbEcX_K_tIr" version="20.2.6" type="github">
  <diagram id="FLb6yXy-qVxE8_mqJTKt" name="第 1 页">
    <mxGraphModel dx="1203" dy="597" grid="1" gridSize="10" guides="1" tooltips="1" connect="1" arrows="1" fold="1" page="1" pageScale="1" pageWidth="827" pageHeight="1169" math="0" shadow="0">
      <root>
        <mxCell id="0" />
        <mxCell id="1" parent="0" />
        <mxCell id="muQduhC81APmcwPTCE_6-1" value="&lt;h1&gt;问题&lt;/h1&gt;&lt;p&gt;1、试题必填项可以没有，所以需要一个暂存表&lt;/p&gt;&lt;p&gt;2、试卷试题结构&lt;/p&gt;&lt;p&gt;&lt;span style=&quot;white-space: pre;&quot;&gt;	&lt;/span&gt;2.1如果加一个表存，存id、questionId、分数、题号&lt;br&gt;&lt;/p&gt;&lt;p&gt;&lt;span style=&quot;white-space: pre;&quot;&gt;	&lt;/span&gt;&lt;span style=&quot;white-space: pre;&quot;&gt;	&lt;/span&gt;2.1.1如果拖拽，题号需要实时算&lt;br&gt;&lt;/p&gt;&lt;p&gt;&lt;span style=&quot;white-space: pre;&quot;&gt;	&lt;/span&gt;&lt;span style=&quot;white-space: pre;&quot;&gt;	&lt;/span&gt;2.1.2什么时机同步到ps表，存id还是questionId&lt;br&gt;&lt;/p&gt;&lt;p&gt;&lt;span style=&quot;white-space: pre;&quot;&gt;	&lt;/span&gt;2.2不加表，直接存ps表，节点需要存es_question的主键id&lt;br&gt;&lt;/p&gt;" style="text;html=1;strokeColor=none;fillColor=none;spacing=5;spacingTop=-20;whiteSpace=wrap;overflow=hidden;rounded=0;" vertex="1" parent="1">
          <mxGeometry x="100" y="220" width="690" height="410" as="geometry" />
        </mxCell>
      </root>
    </mxGraphModel>
  </diagram>
</mxfile>
